How To Make Love To A Woman (2010) 1080p AC3+DTS NLSub


Tagline

A comedy of miscommunication between the sheets. 

MM:    http://www.moviemeter.nl/film/63846

IMDB:    http://www.imdb.com/title/tt1241017/

INFO

Source...: How To Make Love To A Woman 2010 1080p BluRay x264-LCHD 
Audio 1..: DD 5.1 English
Audio 2..: DTS English 
Subs.....: Custom NL 
Subber...: THP, Thanks  
Format...: MKV 

Thanks To Jogabonito 

Enjoy This Nice Release

PLAYER INFO


      Complete name : How.To.Make.Love.To.A.Woman.2010.1080p.AC3.DTS.NLSub.mkv
      Format : Matroska
      File size : 6.96 GiB
      Duration : 1h 31mn
      Overall bit rate : 10.9 Mbps
      Encoded date : UTC 2010-09-13 17:21:29
      Writing application : mkvmerge v3.3.0 ('Language') built on Mar 24 2010 14:59:24
      Writing library : libebml v0.8.0 + libmatroska v0.9.0
   Video #1
      ID : 1
      Format : AVC
      Format/Info : Advanced Video Codec
      Format profile : High@L4.1
      Format settings, CABAC : Yes
      Format settings, ReFrames : 4 frames
      Muxing mode : Container profile=Unknown@4.1
      Codec ID : V_MPEG4/ISO/AVC
      Duration : 1h 31mn
      Bit rate : 8 493 Kbps
      Nominal bit rate : 8 753 Kbps
      Width : 1 920 pixels
      Height : 1 080 pixels
      Display aspect ratio : 16:9
      Frame rate : 23.976 fps
      Resolution : 24 bits
      Colorimetry : 4:2:0
      Scan type : Progressive
      Bits/(Pixel*Frame) : 0.171
      Stream size : 5.44 GiB (78%)
      Writing library : x264 core 102 r1666 d058f37
      Encoding settings : cabac=1 / ref=4 / deblock=1:-1:-1 / analyse=0x3:0x113 / me=umh / 
subme=7 / psy=1 / psy_rd=1.00:0.00 / mixed_ref=1 / me_range=16 / chroma_me=1 / trellis=1 / 
8x8dct=1 / cqm=0 / deadzone=21,11 / fast_pskip=1 / chroma_qp_offset=-2 / threads=12 / 
sliced_threads=0 / nr=0 / decimate=1 / interlaced=0 / constrained_intra=0 / bframes=3 / 
b_pyramid=2 / b_adapt=2 / b_bias=0 / direct=3 / weightb=1 / open_gop=0 / weightp=2 / 
keyint=250 / keyint_min=25 / scenecut=40 / intra_refresh=0 / rc_lookahead=40 / rc=2pass / 
mbtree=1 / bitrate=8753 / ratetol=1.0 / qcomp=0.60 / qpmin=10 / qpmax=51 / qpstep=4 / 
cplxblur=20.0 / qblur=0.5 / vbv_maxrate=50000 / vbv_bufsize=50000 / 
ip_ratio=1.40 / aq=1:1.00 / nal_hrd=none
      Language : English
   Audio #2
      ID : 2
      Format : AC-3
      Format/Info : Audio Coding 3
      Codec ID : A_AC3
      Duration : 1h 31mn
      Bit rate mode : Constant
      Bit rate : 640 Kbps
      Channel(s) : 6 channels
      Channel positions : Front: L C R, Surround: L R, LFE
      Sampling rate : 48.0 KHz
      Stream size : 420 MiB (6%)
      Language : English
   Audio #3
      ID : 3
      Format : DTS
      Format/Info : Digital Theater Systems
      Codec ID : A_DTS
      Duration : 1h 31mn
      Bit rate mode : Constant
      Bit rate : 1 510 Kbps
      Channel(s) : 6 channels
      Channel positions : Front: L C R, Surround: L R, LFE
      Sampling rate : 48.0 KHz
      Resolution : 24 bits
      Stream size : 991 MiB (14%)
      Language : English
   Text #4
      ID : 4
      Format : UTF-8
      Codec ID : S_TEXT/UTF8
      Codec ID/Info : UTF-8 Plain Text
      Language : Dutch